<?xml version="1.0" encoding="UTF-8"?><svg id="Layer_2" xmlns="http://www.w3.org/2000/svg" xmlns:xlink="http://www.w3.org/1999/xlink" viewBox="0 0 999 999"><defs><style>.cls-1{fill:#eff4f5;}.cls-2{fill:url(#linear-gradient);}</style><linearGradient id="linear-gradient" x1="-184.61" y1="74.09" x2="1083.29" y2="862.53" gradientUnits="userSpaceOnUse"><stop offset=".31" stop-color="#e4a7a3"/><stop offset=".9" stop-color="#6f7de2"/></linearGradient></defs><g id="Layer_1-2"><rect class="cls-2" width="999" height="999" rx="60.02" ry="60.02"/><g><path class="cls-1" d="m535.23,708.64h-115.43l-18.69-81.71h-117.26l-19.42,81.71h-113.23l129.72-489.19h124.59l129.72,489.19Zm-155.37-169.66c-16.62-72.79-29.07-142.05-37.38-207.77h-1.47c-8.79,67.67-21.13,136.93-37.01,207.77h75.85Z"/><path class="cls-1" d="m737.87,605.67h89.78c-17.1,75.73-59.86,113.6-128.25,113.6-42.75,0-76.58-16.24-101.5-48.74-24.92-32.49-37.38-77.32-37.38-134.48,0-53.25,12.46-95.94,37.38-128.07,24.92-32.12,58.02-48.19,99.3-48.19,24.92,0,48.86,7.76,71.82,23.27,22.96,15.52,39.7,36.09,50.2,61.75,10.5,25.65,16.36,66.08,17.59,121.29h-177.72c1.47,50.08,15.39,75.12,41.77,75.12,9.04,0,17.1-3.3,24.18-9.89,7.08-6.6,11.36-15.14,12.83-25.65Zm-77.32-97.47h77.32c-.73-23.69-4.03-41.22-9.89-52.58s-15.15-17.04-27.85-17.04c-14.17,0-24.31,5.5-30.42,16.49-6.11,10.99-9.16,28.71-9.16,53.13Z"/></g></g></svg>