<?xml version="1.0" encoding="UTF-8"?><svg id="Layer_2" xmlns="http://www.w3.org/2000/svg" xmlns:xlink="http://www.w3.org/1999/xlink" viewBox="0 0 184 174"><defs><style>.cls-1{fill:#eff4f5;}.cls-2{fill:url(#linear-gradient);}</style><linearGradient id="linear-gradient" x1="56.43" y1="-43.02" x2="122.41" y2="211.43" gradientUnits="userSpaceOnUse"><stop offset=".05" stop-color="#fff"/><stop offset=".31" stop-color="#e4a7a3"/><stop offset=".9" stop-color="#6f7de2"/></linearGradient></defs><g id="Layer_1-2"><rect class="cls-1" width="184" height="174"/><path class="cls-2" d="m161.5,124.97c0,15.74-12.76,28.5-28.5,28.5,0,0-31.5,2-68.5-19C25.46,112.31,22.4,66.22,22.55,50.53c-.04-.52-.05-1.04-.05-1.56,0-1.17.07-2.33.23-3.46,0-.05.01-.09.01-.13s.01-.07.01-.1c.01-.07.01-.11.01-.11,1.85-13.95,13.79-24.7,28.24-24.7,15.74,0,28.5,12.76,28.5,28.5,0,11.67-7.01,21.7-17.05,26.1,13.39,23.02,30.53,33.44,44.62,38.08,4.48-9.84,14.41-16.68,25.93-16.68,15.74,0,28.5,12.76,28.5,28.5Z"/></g></svg>