<?xml version="1.0" encoding="UTF-8"?><svg id="Layer_2" xmlns="http://www.w3.org/2000/svg" xmlns:xlink="http://www.w3.org/1999/xlink" viewBox="0 0 999 999"><defs><style>.cls-1{fill:#eff4f5;}.cls-2{fill:none;stroke:#fff;stroke-miterlimit:10;stroke-width:31px;}.cls-3{fill:url(#linear-gradient);}</style><linearGradient id="linear-gradient" x1="-234.72" y1="42.93" x2="1597.81" y2="1182.48" gradientUnits="userSpaceOnUse"><stop offset=".31" stop-color="#e4a7a3"/><stop offset=".9" stop-color="#6f7de2"/></linearGradient></defs><g id="Layer_1-2"><rect class="cls-3" width="999" height="999" rx="50.37" ry="50.37"/><path class="cls-2" d="m789,259.7v547.29c0,26.52-21.5,48.01-48.01,48.01h-459.98c-26.52,0-48.01-21.5-48.01-48.01V225.01c0-26.52,21.5-48.01,48.01-48.01h402.59l105.4,82.7Z"/><polyline class="cls-2" points="789.5 269.5 681.3 267 681.3 177"/><polygon class="cls-1" points="377.26 385.43 645 385.43 638.93 438.16 519.81 488.93 631.54 488.93 619.41 652.96 511.13 684.95 402.65 652.96 396.79 570.94 451.47 570.94 451.47 611.95 508.1 627.57 570.59 610 574.49 545.56 392.88 543.61 387.98 492.14 513.96 438.16 383.12 436.2 377.26 385.43"/></g></svg>