<?xml version="1.0" encoding="UTF-8"?><svg id="Layer_2" xmlns="http://www.w3.org/2000/svg" xmlns:xlink="http://www.w3.org/1999/xlink" viewBox="0 0 999 999"><defs><style>.cls-1{fill:#eff4f5;}.cls-2{fill:none;stroke:#fff;stroke-miterlimit:10;stroke-width:31px;}.cls-3{fill:url(#linear-gradient);}</style><linearGradient id="linear-gradient" x1="-234.72" y1="42.93" x2="1597.81" y2="1182.48" gradientUnits="userSpaceOnUse"><stop offset=".31" stop-color="#e4a7a3"/><stop offset=".9" stop-color="#6f7de2"/></linearGradient></defs><g id="Layer_1-2"><rect class="cls-3" width="999" height="999" rx="50.37" ry="50.37"/><path class="cls-2" d="m789,259.7v547.29c0,26.52-21.5,48.01-48.01,48.01h-459.98c-26.52,0-48.01-21.5-48.01-48.01V225.01c0-26.52,21.5-48.01,48.01-48.01h402.59l105.4,82.7Z"/><polyline class="cls-2" points="789.5 269.5 681.3 267 681.3 177"/><path class="cls-1" d="m353.14,484.43l83.64-34.61c10.69-4.42,22.43,3.43,22.43,15h0c0,6.71-4.11,12.71-10.35,15.14l-60.65,23.59,60.63,23.49c6.25,2.42,10.37,8.43,10.37,15.13h0c0,11.56-11.75,19.42-22.43,15l-83.64-34.61c-6.07-2.51-10.02-8.43-10.02-15v-8.14c0-6.57,3.96-12.49,10.02-15Z"/><path class="cls-1" d="m692,508.24v8.14c0,6.57-3.96,12.49-10.02,15l-83.64,34.61c-10.69,4.42-22.43-3.43-22.43-15h0c0-6.7,4.12-12.71,10.37-15.13l60.63-23.49-60.65-23.59c-6.24-2.43-10.35-8.43-10.35-15.13h0c0-11.58,11.75-19.43,22.43-15.01l83.64,34.61c6.07,2.51,10.02,8.43,10.02,15Z"/><path class="cls-1" d="m536.19,411.3h0c12.51,0,21.8,11.58,19.08,23.79l-37.58,168.96c-1.99,8.94-9.92,15.3-19.08,15.3h0c-12.51,0-21.8-11.58-19.08-23.79l37.58-168.96c1.99-8.94,9.92-15.3,19.08-15.3Z"/></g></svg>