<?xml version="1.0" encoding="UTF-8"?><svg id="Layer_2" xmlns="http://www.w3.org/2000/svg" xmlns:xlink="http://www.w3.org/1999/xlink" viewBox="0 0 999 999"><defs><style>.cls-1{fill:#eff4f5;}.cls-2{fill:url(#linear-gradient);}</style><linearGradient id="linear-gradient" x1="-184.61" y1="74.09" x2="1083.29" y2="862.53" gradientUnits="userSpaceOnUse"><stop offset=".31" stop-color="#e4a7a3"/><stop offset=".9" stop-color="#6f7de2"/></linearGradient></defs><g id="Layer_1-2"><rect class="cls-2" x="0" width="999" height="999" rx="60.02" ry="60.02"/><g><path class="cls-1" d="m598.25,708.64h-115.43l-18.69-81.71h-117.26l-19.42,81.71h-113.23l129.72-489.19h124.59l129.72,489.19Zm-155.37-169.66c-16.62-72.79-29.07-142.05-37.38-207.77h-1.47c-8.79,67.67-21.13,136.93-37.01,207.77h75.85Z"/><path class="cls-1" d="m642.59,270.39c0-15.63,5.5-28.95,16.49-39.94,10.99-10.99,24.18-16.49,39.58-16.49s28.95,5.5,39.94,16.49c10.99,10.99,16.49,24.31,16.49,39.94s-5.5,28.65-16.49,39.76c-10.99,11.12-24.31,16.67-39.94,16.67s-28.28-5.55-39.39-16.67c-11.12-11.11-16.67-24.37-16.67-39.76Zm2.93,101.14h106.63v337.12h-106.63v-337.12Z"/></g></g></svg>