<?xml version="1.0" encoding="UTF-8"?><svg id="Layer_2" xmlns="http://www.w3.org/2000/svg" xmlns:xlink="http://www.w3.org/1999/xlink" viewBox="0 0 999 999"><defs><style>.cls-1{fill:#eff4f5;}.cls-2{fill:none;stroke:#fff;stroke-miterlimit:10;stroke-width:31px;}.cls-3{fill:url(#linear-gradient);}</style><linearGradient id="linear-gradient" x1="-234.72" y1="42.93" x2="1597.81" y2="1182.48" gradientUnits="userSpaceOnUse"><stop offset=".31" stop-color="#e4a7a3"/><stop offset=".9" stop-color="#6f7de2"/></linearGradient></defs><g id="Layer_1-2"><rect class="cls-3" width="999" height="999" rx="50.37" ry="50.37"/><path class="cls-2" d="m789,259.7v547.29c0,26.52-21.5,48.01-48.01,48.01h-459.98c-26.52,0-48.01-21.5-48.01-48.01V225.01c0-26.52,21.5-48.01,48.01-48.01h402.59l105.4,82.7Z"/><polyline class="cls-2" points="789.5 269.5 681.3 267 681.3 177"/><g><path class="cls-1" d="m543.19,591.25h46.49v147.28c0,18.92-4.94,34.19-14.8,45.79-9.87,11.61-22.94,17.41-39.2,17.41-10.23,0-20.3-2.81-30.22-8.44v-46.64c9.31,6.14,16.01,9.21,20.1,9.21,11.76,0,17.64-7.46,17.64-22.4v-142.22Z"/><path class="cls-1" d="m632.32,792.23v-47.71c14.73,8.59,27.1,12.89,37.13,12.89,5.83,0,10.43-1.61,13.81-4.83s5.06-7.49,5.06-12.81c0-4.09-1.36-7.92-4.07-11.51-2.71-3.58-7.39-7.93-14.04-13.04-16.06-12.27-27.69-23.7-34.9-34.29-7.21-10.59-10.82-22.37-10.82-35.36,0-17.69,5.57-32.11,16.72-43.26s25.57-16.72,43.26-16.72c13.09,0,26.08,2.81,38.97,8.44v45.87c-13.81-7.57-25.01-11.35-33.6-11.35-5.73,0-10.25,1.41-13.58,4.22-3.33,2.81-4.99,6.67-4.99,11.58,0,8.59,7.72,18.26,23.17,29,9.21,6.34,18.54,15.27,28,26.77,9.46,11.51,14.19,24.83,14.19,39.97,0,17.7-6.19,32.35-18.56,43.95-12.38,11.61-28.08,17.41-47.1,17.41-12.99,0-25.88-3.07-38.66-9.21Z"/></g></g></svg>