<?xml version="1.0" encoding="UTF-8"?><svg id="Layer_2" xmlns="http://www.w3.org/2000/svg" viewBox="0 0 675 637.14"><defs><style>.cls-1{fill:#b57d57;}.cls-2{fill:#12172d;}.cls-3{fill:#fff;}.cls-4{fill:none;stroke:#1c202b;stroke-miterlimit:10;stroke-width:10px;}.cls-5{fill:#35180f;}.cls-6{fill:#1f2744;}.cls-7{fill:#b7c6e5;opacity:.42;}</style></defs><g id="Layer_1-2"><circle class="cls-2" cx="178" cy="416.52" r="178"/><path class="cls-1" d="m644.55,292.38c-9.2-4.14-19.31-4.86-29.49-2.68-4.85-145.97-124.69-262.81-271.83-262.81S74.72,145.21,71.3,292.47c-1.88.39-3.75.89-5.6,1.54-31.78,11.07-44.79,56.64-29.07,101.78,14.1,40.48,46.53,66.85,75.99,63.89,49.17,97.39,136.97,177.47,235.01,177.47s186.2-84.06,232-184.68c29.8,8.38,66.65-15.38,84.98-56.15,19.6-43.59,10.62-90.12-20.08-103.93Z"/><path class="cls-2" d="m71.3,292.47S328.89,156.6,373.45,28.56c0,0,8.71-30.12-20.96-28.49-1.41.08-2.9.23-4.49.45C313,5.52,9,26.52,71.3,292.47Z"/><path class="cls-2" d="m369,20.52s-22.94,221.19,249,268c0,0,41-247-249-268Z"/><path class="cls-2" d="m575,462.52s76.85-107.17,36.21-202.2c0,0-30.56,16.25-36.21,120.2"/><path class="cls-2" d="m115.07,475.52s-76.85-107.17-36.21-202.2c0,0,30.56,16.25,36.21,120.2"/><circle class="cls-3" cx="252.72" cy="359.07" r="58.55"/><circle class="cls-5" cx="252.44" cy="358.79" r="40.12"/><circle class="cls-3" cx="267.85" cy="321.59" r="12.01"/><circle class="cls-3" cx="252.64" cy="348.07" r="7.51"/><circle class="cls-3" cx="453.15" cy="361.96" r="58.55"/><circle class="cls-3" cx="428.38" cy="325.93" r="12.01"/><circle class="cls-5" cx="452.9" cy="362.19" r="40.12"/><circle class="cls-3" cx="449.36" cy="345.29" r="7.51"/><path class="cls-6" d="m522.57,288.18c-1.14,3.92-5.82,5.51-9.1,3.1-10.12-7.45-24.67-16.12-43.58-21.65-19.21-5.62-36.38-6.11-49.04-5.23-4.07.28-7.16-3.58-6.03-7.49l15.51-53.44c.63-2.16,2.42-3.76,4.63-4.15,11.69-2.06,29.28-3.45,49.43,1.49,24.99,6.13,42.34,19.16,52,27.95,1.66,1.51,2.31,3.83,1.69,5.98l-15.51,53.43Z"/><path class="cls-6" d="m298.06,269c.68,4.02-2.84,7.5-6.84,6.75-12.35-2.3-29.23-3.75-48.66-.5-19.74,3.31-35.41,10.35-46.42,16.66-3.54,2.03-8.01-.1-8.69-4.11l-9.32-54.85c-.38-2.21.54-4.44,2.36-5.75,9.62-6.95,24.85-15.86,45.14-20.19,25.16-5.37,46.46-1.2,58.99,2.5,2.15.64,3.75,2.44,4.13,4.65l9.32,54.85Z"/><path class="cls-3" d="m310,572.52s53.14,25.09,92-6c20-16,24.35-38.99,21.63-49.94-2.61-10.51-12.63-14.89-23.3-16.74-13.33-2.32-35.04,4.97-46.73,18.26,0,0-40.45-28.65-59.83-14.33s-15.79,56.11,16.23,68.75Z"/><circle class="cls-3" cx="475.96" cy="322.44" r="12.01"/><circle class="cls-4" cx="230.5" cy="361.02" r="108.5"/><circle class="cls-7" cx="230.5" cy="361.02" r="103.5"/><circle class="cls-7" cx="464.5" cy="367.02" r="103.5"/><circle class="cls-4" cx="464.5" cy="367.02" r="108.5"/><rect class="cls-4" x="339" y="355.52" width="19" height="9"/></g></svg>