<?xml version="1.0" encoding="UTF-8"?><svg id="Layer_2" xmlns="http://www.w3.org/2000/svg" viewBox="0 0 728.09 649.45"><defs><style>.cls-1{fill:#b57d57;}</style></defs><g id="Layer_1-2"><path class="cls-1" d="m256.91,580.83s89,108,261,53c0,0,111-49,80-215l104-99s48-42,14-87c-34-45-120,53-120,53l-37,37-8.71-8.7s8.71-55.3,51.71-98.3c43-43,23-110,23-110,0,0-29-44-75-10-46,34-57.41,123.8-57.41,123.8,0,0-9.59,53.2-29.59,53.2-20,0,11-103,11-103,0,0,52-137-17-166-69-29-83,116-83,116,0,0,11,122-30,150,0,0-30-80-37-163S229.91,23.83,229.91,23.83c0,0-70-1-37,129,33,130,35,115,35,115,0,0,29,111-32,136,0,0-119-87-169-39-50,48-15,84-15,84,0,0,183,48,214,90l31,42Z"/></g></svg>