<?xml version="1.0" encoding="UTF-8"?><svg id="Layer_2" xmlns="http://www.w3.org/2000/svg" xmlns:xlink="http://www.w3.org/1999/xlink" viewBox="0 0 184 174"><defs><style>.cls-1{fill:#eff4f5;}.cls-2{fill:url(#linear-gradient);}</style><linearGradient id="linear-gradient" x1="66.27" y1="-5.31" x2="108.25" y2="156.58" gradientUnits="userSpaceOnUse"><stop offset=".05" stop-color="#fff"/><stop offset=".31" stop-color="#e4a7a3"/><stop offset=".9" stop-color="#6f7de2"/></linearGradient></defs><g id="Layer_1-2"><rect class="cls-1" width="184" height="174"/><path class="cls-2" d="m149.02,46.75l-77.88,88.76h0c-2.19,4.61-7.24,9.25-11.08,12.34-2.91,2.33-6.33,3.93-9.98,4.68l-19.13,3.95s-2-9,11.7-22.33c10.1-9.83,21.31-7.07,26.5-4.94,12.59-24.38,43.07-83.54,53.34-103.5,2.17-4.22,6.08-7.02,10.54-7.54l4.71-.56c7.26-.86,13.91,4.78,14.93,12.66l.36,2.75c.65,5.04-.82,10.08-4,13.73Z"/></g></svg>