<?xml version="1.0" encoding="UTF-8"?><svg id="Layer_2" xmlns="http://www.w3.org/2000/svg" xmlns:xlink="http://www.w3.org/1999/xlink" viewBox="0 0 999 999"><defs><style>.cls-1{fill:#eff4f5;}.cls-2{fill:url(#linear-gradient);}</style><linearGradient id="linear-gradient" x1="-184.61" y1="74.09" x2="1083.29" y2="862.53" gradientUnits="userSpaceOnUse"><stop offset=".31" stop-color="#e4a7a3"/><stop offset=".9" stop-color="#6f7de2"/></linearGradient></defs><g id="Layer_1-2"><rect class="cls-2" width="999" height="999" rx="60.02" ry="60.02"/><g><path class="cls-1" d="m146.62,219.45h123.12c31.51,76.71,48.74,120.68,51.67,131.92h1.47c.49-3.42,5.13-15.88,13.92-37.38l37.38-94.54h123.12l-113.6,233.42,123.12,255.77h-123.12c-39.33-92.1-59.85-141.68-61.56-148.77h-1.46c-4.16,15.64-9.65,31.15-16.49,46.54l-45.07,102.24h-121.29l120.56-254.31-111.76-234.89Z"/><path class="cls-1" d="m723.03,192.33h105.9v516.31h-106.63v-44.34h-1.47c-23.7,37.14-50.45,55.7-80.25,55.7-31.27,0-56.49-16.36-75.67-49.1-19.18-32.73-28.76-76.46-28.76-131.18s9.77-97.96,29.31-130.45c19.54-32.49,45.31-48.74,77.32-48.74,29.07,0,55.82,16.74,80.25,50.2v-218.4Zm0,345.18c0-55.45-13.44-83.18-40.31-83.18s-41.41,29.44-41.41,88.31c0,26.14,3.72,46.35,11.18,60.64,7.45,14.29,17.77,21.44,30.96,21.44,12.21,0,21.86-7.57,28.95-22.72,7.08-15.14,10.63-36.64,10.63-64.49Z"/></g></g></svg>